<?xml version="1.0" encoding="UTF-8" standalone="no"?>
<!-- Created with Inkscape (http://www.inkscape.org/) -->
<svg
   xmlns:svg="http://www.w3.org/2000/svg"
   xmlns="http://www.w3.org/2000/svg"
   version="1.0"
   width="200"
   height="200"
   viewBox="0 0 239.316 239.501"
   id="svg3715"
   xml:space="preserve"><defs
   id="defs3765">
			 
			
			
			
			
			
			
			
			
			
			
			 
			
			
			
			
			
			
			
		</defs>
	
		<circle
   cx="119.816"
   cy="120.001"
   r="112.5"
   transform="translate(0.1375748,0.1666536)"
   style="fill:#e7940a;stroke:none;stroke-width:14"
   id="circle3720" /><polygon
   points="118.059,107.948 122.924,117.805 133.802,119.386 125.931,127.059 127.789,137.893 118.059,132.777 108.33,137.893 110.188,127.059 102.316,119.386 113.194,117.805 118.059,107.948 "
   transform="translate(0.1375748,0.1666536)"
   id="polygon3722" /><polygon
   points="140.197,72.316 145.062,82.173 155.94,83.753 148.069,91.426 149.927,102.26 140.197,97.145 130.468,102.26 132.326,91.426 124.455,83.753 135.332,82.173 140.197,72.316 "
   transform="translate(0.1375748,0.1666536)"
   id="polygon3724" /><polygon
   points="97.269,73.71 102.134,83.567 113.012,85.147 105.141,92.82 106.999,103.654 97.269,98.539 87.54,103.654 89.397,92.82 81.526,85.147 92.404,83.567 97.269,73.71 "
   transform="translate(0.1375748,0.1666536)"
   id="polygon3726" /><polygon
   points="76.396,110.853 81.261,120.71 92.139,122.291 84.268,129.963 86.125,140.797 76.396,135.682 66.667,140.797 68.524,129.963 60.653,122.291 71.531,120.71 76.396,110.853 "
   transform="translate(0.1375748,0.1666536)"
   id="polygon3728" /><polygon
   points="161.587,110.17 166.451,120.027 177.329,121.607 169.458,129.281 171.315,140.115 161.587,135 151.856,140.115 153.715,129.281 145.844,121.607 156.722,120.027 161.587,110.17 "
   transform="translate(0.1375748,0.1666536)"
   id="polygon3730" /><polygon
   points="96.3,148.154 101.165,158.012 112.043,159.592 104.172,167.266 106.03,178.099 96.3,172.984 86.571,178.099 88.429,167.266 80.558,159.592 91.436,158.012 96.3,148.154 "
   transform="translate(0.1375748,0.1666536)"
   id="polygon3732" /><polygon
   points="138.809,147.154 143.673,157.012 154.551,158.592 146.68,166.266 148.538,177.099 138.809,171.984 129.078,177.099 130.937,166.266 123.065,158.592 133.943,157.012 138.809,147.154 "
   transform="translate(0.1375748,0.1666536)"
   id="polygon3734" /><g
   transform="translate(0.1375748,0.1666536)"
   id="g3736">
				<path
   d="M 229.415,130.594 C 218.915,111.095 203.917,93.096 179.917,100.596 C 158.919,108.096 142.419,127.594 130.42,144.094 C 118.421,162.093 110.921,186.091 124.42,205.591 C 137.92,223.59 160.419,222.09 178.417,211.59 C 202.417,198.091 221.915,178.592 229.415,153.094"
   style="fill:#dc7303"
   id="path3738" />
			</g><g
   transform="translate(0.1375748,0.1666536)"
   id="g3740">
				<path
   d="M 56.48,64.83 C 47.48,75.83 44.409,80.221 39.426,92.677 C 37.267,98.073 30.495,115.001 38.495,120.001 C 46.495,125.001 55.954,98.627 64.467,85.554 C 70.511,76.271 100.344,28.493 64.035,57.059"
   style="fill:#ffffff"
   id="path3742" />
			</g><g
   transform="translate(0.1375748,0.1666536)"
   id="g3744">
				<circle
   cx="100.15"
   cy="38.117001"
   r="9"
   style="fill:#ffffff"
   id="circle3746" /> 
			</g><circle
   cx="119.5"
   cy="119.5"
   r="112.5"
   transform="translate(0.1375748,0.1666536)"
   style="fill:none;stroke:#f9b629;stroke-width:14"
   id="circle3748" /><polygon
   points="117.742,107.447 122.607,117.304 133.485,118.885 125.614,126.558 127.473,137.392 117.742,132.276 108.014,137.392 109.871,126.558 102,118.885 112.878,117.304 117.742,107.447 "
   transform="translate(0.1375748,0.1666536)"
   id="polygon3750" /><polygon
   points="139.881,71.815 144.746,81.672 155.623,83.252 147.752,90.925 149.61,101.759 139.881,96.644 130.151,101.759 132.01,90.925 124.139,83.252 135.016,81.672 139.881,71.815 "
   transform="translate(0.1375748,0.1666536)"
   id="polygon3752" /><polygon
   points="96.953,73.209 101.817,83.066 112.695,84.646 104.824,92.319 106.682,103.153 96.953,98.038 87.223,103.153 89.081,92.319 81.21,84.646 92.088,83.066 96.953,73.209 "
   transform="translate(0.1375748,0.1666536)"
   id="polygon3754" /><polygon
   points="76.08,110.352 80.944,120.209 91.822,121.789 83.951,129.463 85.809,140.297 76.08,135.182 66.35,140.297 68.208,129.463 60.337,121.789 71.215,120.209 76.08,110.352 "
   transform="translate(0.1375748,0.1666536)"
   id="polygon3756" /><polygon
   points="161.27,109.669 166.135,119.526 177.013,121.107 169.142,128.779 171,139.613 161.27,134.498 151.541,139.613 153.398,128.779 145.527,121.107 156.405,119.526 161.27,109.669 "
   transform="translate(0.1375748,0.1666536)"
   id="polygon3758" /><polygon
   points="95.984,147.654 100.849,157.511 111.727,159.092 103.855,166.764 105.713,177.599 95.984,172.482 86.254,177.599 88.112,166.764 80.241,159.092 91.119,157.511 95.984,147.654 "
   transform="translate(0.1375748,0.1666536)"
   id="polygon3760" /><polygon
   points="138.492,146.654 143.356,156.511 154.234,158.092 146.363,165.764 148.221,176.598 138.492,171.482 128.762,176.598 130.62,165.764 122.749,158.092 133.627,156.511 138.492,146.654 "
   transform="translate(0.1375748,0.1666536)"
   id="polygon3762" />
	</svg>